<?xml version="1.0" encoding="UTF-8" standalone="no"?>
<!-- Created with Inkscape (http://www.inkscape.org/) -->

<svg
   xmlns:dc="http://purl.org/dc/elements/1.1/"
   xmlns:cc="http://creativecommons.org/ns#"
   xmlns:rdf="http://www.w3.org/1999/02/22-rdf-syntax-ns#"
   xmlns:svg="http://www.w3.org/2000/svg"
   xmlns="http://www.w3.org/2000/svg"
   version="1.1"
   width="600"
   height="600"
   id="svg2452"
   xml:space="preserve"><metadata
     id="metadata2458"><rdf:RDF><cc:Work
         rdf:about=""><dc:format>image/svg+xml</dc:format><dc:type
           rdf:resource="http://purl.org/dc/dcmitype/StillImage" /><dc:title></dc:title></cc:Work></rdf:RDF></metadata><defs
     id="defs2456"><clipPath
       id="clipPath2606"><path
         d="m 619.77,3818.2 c 0,198.82 161.171,360 360,360 l 2836.13,0 c 198.83,0 360,-161.18 360,-360 l 0,-2836.134 c 0,-198.828 -161.17,-360 -360,-360 l -2836.13,0 c -198.829,0 -360,161.172 -360,360 l 0,2836.134 z"
         id="path2608" /></clipPath></defs><g
     transform="matrix(1.25,0,0,-1.25,0,600)"
     id="g2460"><g
       transform="scale(0.1,0.1)"
       id="g2462"><path
         d="m 3.85156,4434.11 c 0,198.83 161.17544,360 360.00044,360 l 4067.968,0 c 198.82,0 360,-161.17 360,-360 l 0,-4067.958 c 0,-198.824 -161.18,-359.99966 -360,-359.99966 l -4067.968,0 C 165.027,6.15234 3.85156,167.328 3.85156,366.152 l 0,4067.958"
         id="path2464"
         style="fill:#393536;fill-opacity:1;fill-rule:nonzero;stroke:none" /><path
         d="m 7.14062,369.438 0,4061.382 c 0,198.83 161.17538,360 360.00038,360 l 4061.389,0 c 198.82,0 360,-161.17 360,-360 l 0,-4061.382 c 0,-198.825 -161.18,-360.0005 -360,-360.0005 l -4061.389,0 C 168.316,9.4375 7.14062,170.613 7.14062,369.438"
         id="path2466"
         style="fill:#393637;fill-opacity:1;fill-rule:nonzero;stroke:none" /><path
         d="m 10.4336,372.73 0,4054.81 c 0,198.82 161.1714,360 360.0004,360 l 4054.806,0 c 198.82,0 360,-161.18 360,-360 l 0,-4054.81 c 0,-198.824 -161.18,-359.9995 -360,-359.9995 l -4054.806,0 C 171.605,12.7305 10.4336,173.906 10.4336,372.73"
         id="path2468"
         style="fill:#3a3637;fill-opacity:1;fill-rule:nonzero;stroke:none" /><path
         d="m 13.7188,376.02 0,4048.23 c 0,198.82 161.1762,360 360.0002,360 l 4048.231,0 c 198.82,0 360,-161.18 360,-360 l 0,-4048.23 c 0,-198.825 -161.18,-360.0005 -360,-360.0005 l -4048.231,0 C 174.895,16.0195 13.7188,177.195 13.7188,376.02"
         id="path2470"
         style="fill:#3a3738;fill-opacity:1;fill-rule:nonzero;stroke:none" /><path
         d="m 17.0117,379.309 0,4041.651 c 0,198.83 161.1723,360 360.0003,360 l 4041.648,0 c 198.82,0 360,-161.17 360,-360 l 0,-4041.651 c 0,-198.825 -161.18,-360.0004 -360,-360.0004 l -4041.648,0 C 178.184,19.3086 17.0117,180.484 17.0117,379.309"
         id="path2472"
         style="fill:#3b3738;fill-opacity:1;fill-rule:nonzero;stroke:none" /><path
         d="m 20.2969,382.598 0,4035.072 c 0,198.83 161.1761,360 360.0001,360 l 4035.073,0 c 198.83,0 360,-161.17 360,-360 l 0,-4035.072 c 0,-198.828 -161.17,-360.0003 -360,-360.0003 l -4035.073,0 C 181.473,22.5977 20.2969,183.77 20.2969,382.598"
         id="path2474"
         style="fill:#3b3838;fill-opacity:1;fill-rule:nonzero;stroke:none" /><path
         d="m 23.5859,385.883 0,4028.497 c 0,198.83 161.1761,360 360.0001,360 l 4028.494,0 c 198.83,0 360,-161.17 360,-360 l 0,-4028.497 c 0,-198.824 -161.17,-360.0002 -360,-360.0002 l -4028.494,0 C 184.762,25.8828 23.5859,187.059 23.5859,385.883"
         id="path2476"
         style="fill:#3c3839;fill-opacity:1;fill-rule:nonzero;stroke:none" /><path
         d="m 26.875,389.172 0,4021.918 c 0,198.83 161.176,360 360,360 l 4021.915,0 c 198.83,0 360,-161.17 360,-360 l 0,-4021.918 c 0,-198.824 -161.17,-360.0001 -360,-360.0001 l -4021.915,0 c -198.824,0 -360,161.1761 -360,360.0001"
         id="path2478"
         style="fill:#3c3839;fill-opacity:1;fill-rule:nonzero;stroke:none" /><path
         d="m 30.1641,392.461 0,4015.339 c 0,198.83 161.1719,360 359.9999,360 l 4015.346,0 c 198.82,0 360,-161.17 360,-360 l 0,-4015.339 c 0,-198.824 -161.18,-360.0001 -360,-360.0001 l -4015.346,0 C 191.336,32.4609 30.1641,193.637 30.1641,392.461"
         id="path2480"
         style="fill:#3c393a;fill-opacity:1;fill-rule:nonzero;stroke:none" /><path
         d="m 33.4531,395.75 0,4008.77 c 0,198.82 161.1759,360 359.9999,360 l 4008.767,0 c 198.82,0 360,-161.18 360,-360 l 0,-4008.77 c 0,-198.824 -161.18,-360 -360,-360 l -4008.767,0 c -198.824,0 -359.9999,161.176 -359.9999,360"
         id="path2482"
         style="fill:#3d393a;fill-opacity:1;fill-rule:nonzero;stroke:none" /><path
         d="m 36.7422,399.039 0,4002.191 c 0,198.82 161.1718,360 359.9998,360 l 4002.188,0 c 198.82,0 360,-161.18 360,-360 l 0,-4002.191 c 0,-198.824 -161.18,-359.9999 -360,-359.9999 l -4002.188,0 C 197.914,39.0391 36.7422,200.215 36.7422,399.039"
         id="path2484"
         style="fill:#3d3a3b;fill-opacity:1;fill-rule:nonzero;stroke:none" /><path
         d="m 40.0273,402.328 0,3995.612 c 0,198.82 161.1757,360 359.9997,360 l 3995.613,0 c 198.82,0 360,-161.18 360,-360 l 0,-3995.612 c 0,-198.828 -161.18,-359.9999 -360,-359.9999 l -3995.613,0 C 201.203,42.3281 40.0273,203.5 40.0273,402.328"
         id="path2486"
         style="fill:#3e3a3b;fill-opacity:1;fill-rule:nonzero;stroke:none" /><path
         d="m 43.3164,405.617 0,3989.033 c 0,198.83 161.1756,360 359.9996,360 l 3989.034,0 c 198.83,0 360,-161.17 360,-360 l 0,-3989.033 c 0,-198.828 -161.17,-359.9998 -360,-359.9998 l -3989.034,0 C 204.492,45.6172 43.3164,206.789 43.3164,405.617"
         id="path2488"
         style="fill:#3e3b3b;fill-opacity:1;fill-rule:nonzero;stroke:none" /><path
         d="m 46.6055,408.902 0,3982.458 c 0,198.83 161.1755,360 359.9995,360 l 3982.455,0 c 198.83,0 360,-161.17 360,-360 l 0,-3982.458 c 0,-198.824 -161.17,-359.9997 -360,-359.9997 l -3982.455,0 C 207.781,48.9023 46.6055,210.078 46.6055,408.902"
         id="path2490"
         style="fill:#3f3b3c;fill-opacity:1;fill-rule:nonzero;stroke:none" /><path
         d="m 49.8945,412.191 0,3975.879 c 0,198.83 161.1755,360 360.0005,360 l 3975.875,0 c 198.83,0 360,-161.17 360,-360 l 0,-3975.879 c 0,-198.824 -161.17,-359.9996 -360,-359.9996 l -3975.875,0 C 211.07,52.1914 49.8945,213.367 49.8945,412.191"
         id="path2492"
         style="fill:#3f3b3c;fill-opacity:1;fill-rule:nonzero;stroke:none" /><path
         d="m 53.1836,415.48 0,3969.31 c 0,198.82 161.1754,360 360.0004,360 l 3969.296,0 c 198.83,0 360,-161.18 360,-360 l 0,-3969.31 c 0,-198.824 -161.17,-359.9995 -360,-359.9995 l -3969.296,0 C 214.359,55.4805 53.1836,216.656 53.1836,415.48"
         id="path2494"
         style="fill:#3f3c3d;fill-opacity:1;fill-rule:nonzero;stroke:none" /><path
         d="m 56.4727,418.77 0,3962.73 c 0,198.82 161.1753,360 360.0003,360 l 3962.727,0 c 198.82,0 360,-161.18 360,-360 l 0,-3962.73 c 0,-198.825 -161.18,-360.0005 -360,-360.0005 l -3962.727,0 C 217.648,58.7695 56.4727,219.945 56.4727,418.77"
         id="path2496"
         style="fill:#403c3d;fill-opacity:1;fill-rule:nonzero;stroke:none" /><path
         d="m 59.7617,422.059 0,3956.151 c 0,198.82 161.1723,360 360.0003,360 l 3956.148,0 c 198.82,0 360,-161.18 360,-360 l 0,-3956.151 c 0,-198.825 -161.18,-360.0004 -360,-360.0004 l -3956.148,0 C 220.934,62.0586 59.7617,223.234 59.7617,422.059"
         id="path2498"
         style="fill:#403d3e;fill-opacity:1;fill-rule:nonzero;stroke:none" /><path
         d="m 63.0508,425.348 0,3949.572 c 0,198.82 161.1722,360 360.0002,360 l 3949.569,0 c 198.83,0 360,-161.18 360,-360 l 0,-3949.572 c 0,-198.825 -161.17,-360.0003 -360,-360.0003 l -3949.569,0 C 224.223,65.3477 63.0508,226.523 63.0508,425.348"
         id="path2500"
         style="fill:#413d3e;fill-opacity:1;fill-rule:nonzero;stroke:none" /><path
         d="m 66.3359,428.637 0,3942.993 c 0,198.82 161.1761,360 360.0001,360 l 3942.994,0 c 198.83,0 360,-161.18 360,-360 l 0,-3942.993 c 0,-198.828 -161.17,-360.0003 -360,-360.0003 l -3942.994,0 C 227.512,68.6367 66.3359,229.809 66.3359,428.637"
         id="path2502"
         style="fill:#413e3e;fill-opacity:1;fill-rule:nonzero;stroke:none" /><path
         d="m 69.625,431.922 0,3936.418 c 0,198.83 161.176,360 360,360 l 3936.415,0 c 198.83,0 360,-161.17 360,-360 l 0,-3936.418 c 0,-198.824 -161.17,-360.0001 -360,-360.0001 l -3936.415,0 c -198.824,0 -360,161.1761 -360,360.0001"
         id="path2504"
         style="fill:#423e3f;fill-opacity:1;fill-rule:nonzero;stroke:none" /><path
         d="m 72.9141,435.211 0,3929.839 c 0,198.83 161.1759,360 359.9999,360 l 3929.836,0 c 198.83,0 360,-161.17 360,-360 l 0,-3929.839 c 0,-198.824 -161.17,-360.0001 -360,-360.0001 l -3929.836,0 C 234.09,75.2109 72.9141,236.387 72.9141,435.211"
         id="path2506"
         style="fill:#423f3f;fill-opacity:1;fill-rule:nonzero;stroke:none" /><path
         d="m 76.2031,438.5 0,3923.27 c 0,198.82 161.1759,360 359.9999,360 l 3923.257,0 c 198.83,0 360,-161.18 360,-360 l 0,-3923.27 c 0,-198.824 -161.17,-360 -360,-360 l -3923.257,0 c -198.824,0 -359.9999,161.176 -359.9999,360"
         id="path2508"
         style="fill:#423f40;fill-opacity:1;fill-rule:nonzero;stroke:none" /><path
         d="m 79.4922,441.789 0,3916.691 c 0,198.82 161.1758,360 359.9998,360 l 3916.688,0 c 198.82,0 360,-161.18 360,-360 l 0,-3916.691 c 0,-198.824 -161.18,-359.9999 -360,-359.9999 l -3916.688,0 C 240.668,81.7891 79.4922,242.965 79.4922,441.789"
         id="path2510"
         style="fill:#433f40;fill-opacity:1;fill-rule:nonzero;stroke:none" /><path
         d="m 82.7812,445.078 0,3910.112 c 0,198.82 161.1718,360 359.9998,360 l 3910.109,0 c 198.82,0 360,-161.18 360,-360 l 0,-3910.112 c 0,-198.824 -161.18,-359.9999 -360,-359.9999 l -3910.109,0 C 243.953,85.0781 82.7812,246.254 82.7812,445.078"
         id="path2512"
         style="fill:#434041;fill-opacity:1;fill-rule:nonzero;stroke:none" /><path
         d="m 86.0664,448.367 0,3903.533 c 0,198.82 161.1756,360 359.9996,360 l 3903.534,0 c 198.83,0 360,-161.18 360,-360 l 0,-3903.533 c 0,-198.828 -161.17,-359.9998 -360,-359.9998 l -3903.534,0 C 247.242,88.3672 86.0664,249.539 86.0664,448.367"
         id="path2514"
         style="fill:#444041;fill-opacity:1;fill-rule:nonzero;stroke:none" /><path
         d="m 89.3555,451.656 0,3896.954 c 0,198.82 161.1755,360 359.9995,360 l 3896.955,0 c 198.83,0 360,-161.18 360,-360 l 0,-3896.954 c 0,-198.824 -161.17,-359.9998 -360,-359.9998 l -3896.955,0 C 250.531,91.6562 89.3555,252.832 89.3555,451.656"
         id="path2516"
         style="fill:#444142;fill-opacity:1;fill-rule:nonzero;stroke:none" /><path
         d="m 92.6445,454.941 0,3890.379 c 0,198.82 161.1755,360 360.0005,360 l 3890.375,0 c 198.83,0 360,-161.18 360,-360 l 0,-3890.379 c 0,-198.824 -161.17,-359.9996 -360,-359.9996 l -3890.375,0 C 253.82,94.9414 92.6445,256.117 92.6445,454.941"
         id="path2518"
         style="fill:#454142;fill-opacity:1;fill-rule:nonzero;stroke:none" /><path
         d="m 95.9336,458.23 0,3883.81 c 0,198.82 161.1754,360 360.0004,360 l 3883.796,0 c 198.83,0 360,-161.18 360,-360 l 0,-3883.81 c 0,-198.824 -161.17,-359.9995 -360,-359.9995 l -3883.796,0 C 257.109,98.2305 95.9336,259.406 95.9336,458.23"
         id="path2520"
         style="fill:#454242;fill-opacity:1;fill-rule:nonzero;stroke:none" /><path
         d="m 99.2227,461.52 0,3877.23 c 0,198.82 161.1723,360 360.0003,360 l 3877.227,0 c 198.82,0 360,-161.18 360,-360 l 0,-3877.23 c 0,-198.825 -161.18,-360 -360,-360 l -3877.227,0 c -198.828,0 -360.0003,161.175 -360.0003,360"
         id="path2522"
         style="fill:#454243;fill-opacity:1;fill-rule:nonzero;stroke:none" /><path
         d="m 102.512,464.809 0,3870.651 c 0,198.82 161.176,360 360,360 l 3870.648,0 c 198.82,0 360,-161.18 360,-360 l 0,-3870.651 c 0,-198.825 -161.18,-360 -360,-360 l -3870.648,0 c -198.824,0 -360,161.175 -360,360"
         id="path2524"
         style="fill:#464243;fill-opacity:1;fill-rule:nonzero;stroke:none" /><path
         d="m 105.801,468.098 0,3864.072 c 0,198.82 161.172,360 360,360 l 3864.069,0 c 198.83,0 360,-161.18 360,-360 l 0,-3864.072 c 0,-198.825 -161.17,-360 -360,-360 l -3864.069,0 c -198.828,0 -360,161.175 -360,360"
         id="path2526"
         style="fill:#464344;fill-opacity:1;fill-rule:nonzero;stroke:none" /><path
         d="m 109.086,471.387 0,3857.493 c 0,198.83 161.176,360 360,360 l 3857.494,0 c 198.83,0 360,-161.17 360,-360 l 0,-3857.493 c 0,-198.825 -161.17,-360 -360,-360 l -3857.494,0 c -198.824,0 -360,161.175 -360,360"
         id="path2528"
         style="fill:#474344;fill-opacity:1;fill-rule:nonzero;stroke:none" /><path
         d="m 112.375,474.672 0,3850.918 c 0,198.82 161.176,360 360,360 l 3850.915,0 c 198.83,0 360,-161.18 360,-360 l 0,-3850.918 c 0,-198.824 -161.17,-360 -360,-360 l -3850.915,0 c -198.824,0 -360,161.176 -360,360"
         id="path2530"
         style="fill:#474445;fill-opacity:1;fill-rule:nonzero;stroke:none" /><path
         d="m 115.664,477.961 0,3844.339 c 0,198.83 161.176,360 360,360 l 3844.336,0 c 198.83,0 360,-161.17 360,-360 l 0,-3844.339 c 0,-198.824 -161.17,-360 -360,-360 l -3844.336,0 c -198.824,0 -360,161.176 -360,360"
         id="path2532"
         style="fill:#484445;fill-opacity:1;fill-rule:nonzero;stroke:none" /><path
         d="m 118.953,481.25 0,3837.77 c 0,198.82 161.176,360 360,360 l 3837.757,0 c 198.83,0 360,-161.18 360,-360 l 0,-3837.77 c 0,-198.824 -161.17,-360 -360,-360 l -3837.757,0 c -198.824,0 -360,161.176 -360,360"
         id="path2534"
         style="fill:#484545;fill-opacity:1;fill-rule:nonzero;stroke:none" /><path
         d="m 122.242,484.539 0,3831.191 c 0,198.82 161.176,360 360,360 l 3831.188,0 c 198.82,0 360,-161.18 360,-360 l 0,-3831.191 c 0,-198.824 -161.18,-360 -360,-360 l -3831.188,0 c -198.824,0 -360,161.176 -360,360"
         id="path2536"
         style="fill:#484546;fill-opacity:1;fill-rule:nonzero;stroke:none" /><path
         d="m 125.531,487.828 0,3824.612 c 0,198.82 161.172,360 360,360 l 3824.609,0 c 198.82,0 360,-161.18 360,-360 l 0,-3824.612 c 0,-198.824 -161.18,-360 -360,-360 l -3824.609,0 c -198.828,0 -360,161.176 -360,360"
         id="path2538"
         style="fill:#494646;fill-opacity:1;fill-rule:nonzero;stroke:none" /><path
         d="m 128.82,491.117 0,3818.033 c 0,198.82 161.172,360 360,360 l 3818.03,0 c 198.83,0 360,-161.18 360,-360 l 0,-3818.033 c 0,-198.824 -161.17,-360 -360,-360 l -3818.03,0 c -198.828,0 -360,161.176 -360,360"
         id="path2540"
         style="fill:#494647;fill-opacity:1;fill-rule:nonzero;stroke:none" /><path
         d="m 132.105,494.406 0,3811.454 c 0,198.83 161.176,360 360,360 l 3811.455,0 c 198.83,0 360,-161.17 360,-360 l 0,-3811.454 c 0,-198.828 -161.17,-360 -360,-360 l -3811.455,0 c -198.824,0 -360,161.172 -360,360"
         id="path2542"
         style="fill:#4a4647;fill-opacity:1;fill-rule:nonzero;stroke:none" /><path
         d="m 135.395,497.695 0,3804.875 c 0,198.83 161.175,360 360,360 l 3804.875,0 c 198.83,0 360,-161.17 360,-360 l 0,-3804.875 c 0,-198.824 -161.17,-360 -360,-360 l -3804.875,0 c -198.825,0 -360,161.176 -360,360"
         id="path2544"
         style="fill:#4a4748;fill-opacity:1;fill-rule:nonzero;stroke:none" /><path
         d="m 138.684,500.98 0,3798.3 c 0,198.83 161.175,360 360,360 l 3798.296,0 c 198.83,0 360,-161.17 360,-360 l 0,-3798.3 c 0,-198.824 -161.17,-360 -360,-360 l -3798.296,0 c -198.825,0 -360,161.176 -360,360"
         id="path2546"
         style="fill:#4b4748;fill-opacity:1;fill-rule:nonzero;stroke:none" /><path
         d="m 141.973,504.27 0,3791.73 c 0,198.82 161.175,360 360,360 l 3791.727,0 c 198.82,0 360,-161.18 360,-360 l 0,-3791.73 c 0,-198.825 -161.18,-360 -360,-360 l -3791.727,0 c -198.825,0 -360,161.175 -360,360"
         id="path2548"
         style="fill:#4b4849;fill-opacity:1;fill-rule:nonzero;stroke:none" /><path
         d="m 145.262,507.559 0,3785.151 c 0,198.82 161.176,360 360,360 l 3785.148,0 c 198.82,0 360,-161.18 360,-360 l 0,-3785.151 c 0,-198.825 -161.18,-360 -360,-360 l -3785.148,0 c -198.824,0 -360,161.175 -360,360"
         id="path2550"
         style="fill:#4b4849;fill-opacity:1;fill-rule:nonzero;stroke:none" /><path
         d="m 148.551,510.848 0,3778.572 c 0,198.82 161.176,360 360,360 l 3778.569,0 c 198.83,0 360,-161.18 360,-360 l 0,-3778.572 c 0,-198.825 -161.17,-360 -360,-360 l -3778.569,0 c -198.824,0 -360,161.175 -360,360"
         id="path2552"
         style="fill:#4c4949;fill-opacity:1;fill-rule:nonzero;stroke:none" /><path
         d="m 151.84,514.137 0,3771.993 c 0,198.82 161.172,360 360,360 l 3771.99,0 c 198.83,0 360,-161.18 360,-360 l 0,-3771.993 c 0,-198.825 -161.17,-360 -360,-360 l -3771.99,0 c -198.828,0 -360,161.175 -360,360"
         id="path2554"
         style="fill:#4c494a;fill-opacity:1;fill-rule:nonzero;stroke:none" /><path
         d="m 155.125,517.426 0,3765.414 c 0,198.82 161.176,360 360,360 l 3765.415,0 c 198.83,0 360,-161.18 360,-360 l 0,-3765.414 c 0,-198.828 -161.17,-360 -360,-360 l -3765.415,0 c -198.824,0 -360,161.172 -360,360"
         id="path2556"
         style="fill:#4d494a;fill-opacity:1;fill-rule:nonzero;stroke:none" /><path
         d="m 158.418,520.715 0,3758.835 c 0,198.83 161.172,360 360,360 l 3758.832,0 c 198.83,0 360,-161.17 360,-360 l 0,-3758.835 c 0,-198.824 -161.17,-360 -360,-360 l -3758.832,0 c -198.828,0 -360,161.176 -360,360"
         id="path2558"
         style="fill:#4d4a4b;fill-opacity:1;fill-rule:nonzero;stroke:none" /><path
         d="m 161.703,524.004 0,3752.256 c 0,198.83 161.176,360 360,360 l 3752.257,0 c 198.83,0 360,-161.17 360,-360 l 0,-3752.256 c 0,-198.828 -161.17,-360 -360,-360 l -3752.257,0 c -198.824,0 -360,161.172 -360,360"
         id="path2560"
         style="fill:#4e4a4b;fill-opacity:1;fill-rule:nonzero;stroke:none" /><path
         d="m 164.992,527.289 0,3745.681 c 0,198.83 161.176,360 360,360 l 3745.688,0 c 198.82,0 360,-161.17 360,-360 l 0,-3745.681 c 0,-198.824 -161.18,-360 -360,-360 l -3745.688,0 c -198.824,0 -360,161.176 -360,360"
         id="path2562"
         style="fill:#4e4b4c;fill-opacity:1;fill-rule:nonzero;stroke:none" /><path
         d="m 168.277,530.578 0,3739.112 c 0,198.83 161.176,360 360,360 l 3739.113,0 c 198.82,0 360,-161.17 360,-360 l 0,-3739.112 c 0,-198.828 -161.18,-360 -360,-360 l -3739.113,0 c -198.824,0 -360,161.172 -360,360"
         id="path2564"
         style="fill:#4e4b4c;fill-opacity:1;fill-rule:nonzero;stroke:none" /><path
         d="m 171.57,4266.4 c 0,198.82 161.176,360 360,360 l 3732.53,0 c 198.83,0 360,-161.18 360,-360 l 0,-3732.533 c 0,-198.824 -161.17,-360 -360,-360 l -3732.53,0 c -198.824,0 -360,161.176 -360,360 l 0,3732.533"
         id="path2566"
         style="fill:#4f4c4c;fill-opacity:1;fill-rule:nonzero;stroke:none" /><path
         d="m 379.77,4058.2 c 0,198.82 161.171,360 360,360 l 3316.13,0 c 198.83,0 360,-161.18 360,-360 l 0,-3316.134 c 0,-198.824 -161.17,-360 -360,-360 l -3316.13,0 c -198.829,0 -360,161.176 -360,360 l 0,3316.134"
         id="path2568"
         style="fill:#231f20;fill-opacity:1;fill-rule:nonzero;stroke:none" /><path
         d="m 386.02,747.23 0,3306.17 c 0,198.22 160.687,358.92 358.914,358.92 l 3306.166,0 c 198.23,0 358.92,-160.7 358.92,-358.92 l 0,-3306.17 c 0,-198.222 -160.69,-358.914 -358.92,-358.914 l -3306.166,0 c -198.227,0 -358.914,160.692 -358.914,358.914"
         id="path2570"
         style="fill:#242021;fill-opacity:1;fill-rule:nonzero;stroke:none" /><path
         d="m 392.27,752.402 0,3296.198 c 0,197.63 160.207,357.83 357.835,357.83 l 3296.195,0 c 197.63,0 357.83,-160.2 357.83,-357.83 l 0,-3296.198 c 0,-197.629 -160.2,-357.836 -357.83,-357.836 l -3296.195,0 c -197.628,0 -357.835,160.207 -357.835,357.836"
         id="path2572"
         style="fill:#262223;fill-opacity:1;fill-rule:nonzero;stroke:none" /><path
         d="m 398.52,757.57 0,3286.23 c 0,197.03 159.718,356.75 356.753,356.75 l 3286.227,0 c 197.03,0 356.75,-159.72 356.75,-356.75 l 0,-3286.23 c 0,-197.031 -159.72,-356.754 -356.75,-356.754 l -3286.227,0 c -197.035,0 -356.753,159.723 -356.753,356.754"
         id="path2574"
         style="fill:#272324;fill-opacity:1;fill-rule:nonzero;stroke:none" /><path
         d="m 404.77,762.738 0,3276.262 c 0,196.43 159.238,355.67 355.671,355.67 l 3276.259,0 c 196.43,0 355.67,-159.24 355.67,-355.67 l 0,-3276.262 c 0,-196.433 -159.24,-355.672 -355.67,-355.672 l -3276.259,0 c -196.433,0 -355.671,159.239 -355.671,355.672"
         id="path2576"
         style="fill:#292526;fill-opacity:1;fill-rule:nonzero;stroke:none" /><path
         d="m 411.02,767.906 0,3266.294 c 0,195.83 158.75,354.59 354.589,354.59 l 3266.291,0 c 195.83,0 354.59,-158.76 354.59,-354.59 l 0,-3266.294 c 0,-195.836 -158.76,-354.59 -354.59,-354.59 l -3266.291,0 c -195.839,0 -354.589,158.754 -354.589,354.59"
         id="path2578"
         style="fill:#2a2627;fill-opacity:1;fill-rule:nonzero;stroke:none" /><path
         d="m 417.27,773.074 0,3256.316 c 0,195.24 158.265,353.51 353.507,353.51 l 3256.323,0 c 195.24,0 353.51,-158.27 353.51,-353.51 l 0,-3256.316 c 0,-195.238 -158.27,-353.508 -353.51,-353.508 l -3256.323,0 c -195.242,0 -353.507,158.27 -353.507,353.508"
         id="path2580"
         style="fill:#2b2728;fill-opacity:1;fill-rule:nonzero;stroke:none" /><path
         d="m 423.52,778.242 0,3246.348 c 0,194.65 157.781,352.43 352.425,352.43 l 3246.355,0 c 194.64,0 352.42,-157.78 352.42,-352.43 l 0,-3246.348 c 0,-194.644 -157.78,-352.426 -352.42,-352.426 l -3246.355,0 c -194.644,0 -352.425,157.782 -352.425,352.426"
         id="path2582"
         style="fill:#2c292a;fill-opacity:1;fill-rule:nonzero;stroke:none" /><path
         d="m 429.77,783.406 0,3236.394 c 0,194.04 157.296,351.34 351.339,351.34 l 3236.391,0 c 194.04,0 351.34,-157.3 351.34,-351.34 l 0,-3236.394 c 0,-194.043 -157.3,-351.34 -351.34,-351.34 l -3236.391,0 c -194.043,0 -351.339,157.297 -351.339,351.34"
         id="path2584"
         style="fill:#2e2a2b;fill-opacity:1;fill-rule:nonzero;stroke:none" /><path
         d="m 436.02,788.578 0,3226.422 c 0,193.44 156.812,350.25 350.257,350.25 l 3226.423,0 c 193.44,0 350.26,-156.81 350.26,-350.25 l 0,-3226.422 c 0,-193.449 -156.82,-350.262 -350.26,-350.262 l -3226.423,0 c -193.445,0 -350.257,156.813 -350.257,350.262"
         id="path2586"
         style="fill:#2f2c2d;fill-opacity:1;fill-rule:nonzero;stroke:none" /><path
         d="m 442.27,793.746 0,3216.454 c 0,192.84 156.328,349.18 349.179,349.18 l 3216.441,0 c 192.86,0 349.18,-156.34 349.18,-349.18 l 0,-3216.454 c 0,-192.848 -156.32,-349.18 -349.18,-349.18 l -3216.441,0 c -192.851,0 -349.179,156.332 -349.179,349.18"
         id="path2588"
         style="fill:#312d2e;fill-opacity:1;fill-rule:nonzero;stroke:none" /><path
         d="m 448.52,798.914 0,3206.476 c 0,192.25 155.843,348.1 348.093,348.1 l 3206.487,0 c 192.25,0 348.09,-155.85 348.09,-348.1 l 0,-3206.476 c 0,-192.25 -155.84,-348.098 -348.09,-348.098 l -3206.487,0 c -192.25,0 -348.093,155.848 -348.093,348.098"
         id="path2590"
         style="fill:#322e2f;fill-opacity:1;fill-rule:nonzero;stroke:none" /><path
         d="m 454.77,804.082 0,3196.508 c 0,191.66 155.359,347.02 347.011,347.02 l 3196.519,0 c 191.65,0 347.01,-155.36 347.01,-347.02 l 0,-3196.508 c 0,-191.656 -155.36,-347.016 -347.01,-347.016 l -3196.519,0 c -191.652,0 -347.011,155.36 -347.011,347.016"
         id="path2592"
         style="fill:#333031;fill-opacity:1;fill-rule:nonzero;stroke:none" /><path
         d="m 461.02,809.25 0,3186.54 c 0,191.06 154.875,345.93 345.929,345.93 l 3186.551,0 c 191.05,0 345.93,-154.87 345.93,-345.93 l 0,-3186.54 c 0,-191.059 -154.88,-345.934 -345.93,-345.934 l -3186.551,0 c -191.054,0 -345.929,154.875 -345.929,345.934"
         id="path2594"
         style="fill:#353132;fill-opacity:1;fill-rule:nonzero;stroke:none" /><path
         d="m 467.27,814.418 0,3176.572 c 0,190.46 154.39,344.85 344.847,344.85 l 3176.583,0 c 190.45,0 344.85,-154.39 344.85,-344.85 l 0,-3176.572 c 0,-190.461 -154.4,-344.852 -344.85,-344.852 l -3176.583,0 c -190.457,0 -344.847,154.391 -344.847,344.852"
         id="path2596"
         style="fill:#363334;fill-opacity:1;fill-rule:nonzero;stroke:none" /><path
         d="m 473.52,819.582 0,3166.618 c 0,189.85 153.906,343.76 343.765,343.76 l 3166.605,0 c 189.86,0 343.77,-153.91 343.77,-343.76 l 0,-3166.618 c 0,-189.859 -153.91,-343.766 -343.77,-343.766 l -3166.605,0 c -189.859,0 -343.765,153.907 -343.765,343.766"
         id="path2598"
         style="fill:#383435;fill-opacity:1;fill-rule:nonzero;stroke:none" /><path
         d="m 479.77,3981.39 c 0,189.27 153.421,342.69 342.683,342.69 l 3156.637,0 c 189.27,0 342.69,-153.42 342.69,-342.69 l 0,-3156.64 c 0,-189.262 -153.42,-342.684 -342.69,-342.684 l -3156.637,0 c -189.262,0 -342.683,153.422 -342.683,342.684 l 0,3156.64"
         id="path2600"
         style="fill:#393536;fill-opacity:1;fill-rule:nonzero;stroke:none" /><g
         id="g2602"><g
           clip-path="url(#clipPath2606)"
           id="g2604"><path
             d="m 4168.37,622.098 10,0 0,3556 -10,0 0,-3556 z"
             id="path2610"
             style="fill:#a7a5a6;fill-opacity:1;fill-rule:nonzero;stroke:none" /><path
             d="m 4158.33,622.098 10,0 0,3556 -10,0 0,-3556 z"
             id="path2612"
             style="fill:#a8a6a7;fill-opacity:1;fill-rule:nonzero;stroke:none" /><path
             d="m 4148.29,622.098 10,0 0,3556 -10,0 0,-3556 z"
             id="path2614"
             style="fill:#a9a7a8;fill-opacity:1;fill-rule:nonzero;stroke:none" /><path
             d="m 4138.26,622.098 10,0 0,3556 -10,0 0,-3556 z"
             id="path2616"
             style="fill:#aaa8a9;fill-opacity:1;fill-rule:nonzero;stroke:none" /><path
             d="m 4128.22,622.098 10,0 0,3556 -10,0 0,-3556 z"
             id="path2618"
             style="fill:#aba9aa;fill-opacity:1;fill-rule:nonzero;stroke:none" /><path
             d="m 4118.18,622.098 10,0 0,3556 -10,0 0,-3556 z"
             id="path2620"
             style="fill:#acaaaa;fill-opacity:1;fill-rule:nonzero;stroke:none" /><path
             d="m 4108.15,622.098 10,0 0,3556 -10,0 0,-3556 z"
             id="path2622"
             style="fill:#acabab;fill-opacity:1;fill-rule:nonzero;stroke:none" /><path
             d="m 4098.11,622.098 10,0 0,3556 -10,0 0,-3556 z"
             id="path2624"
             style="fill:#adacac;fill-opacity:1;fill-rule:nonzero;stroke:none" /><path
             d="m 4088.07,622.098 10,0 0,3556 -10,0 0,-3556 z"
             id="path2626"
             style="fill:#aeadad;fill-opacity:1;fill-rule:nonzero;stroke:none" /><path
             d="m 4078.04,622.098 10,0 0,3556 -10,0 0,-3556 z"
             id="path2628"
             style="fill:#afaeae;fill-opacity:1;fill-rule:nonzero;stroke:none" /><path
             d="m 4068,622.098 10,0 0,3556 -10,0 0,-3556 z"
             id="path2630"
             style="fill:#b0afaf;fill-opacity:1;fill-rule:nonzero;stroke:none" /><path
             d="m 4057.96,622.098 10,0 0,3556 -10,0 0,-3556 z"
             id="path2632"
             style="fill:#b1b0b0;fill-opacity:1;fill-rule:nonzero;stroke:none" /><path
             d="m 4047.93,622.098 10,0 0,3556 -10,0 0,-3556 z"
             id="path2634"
             style="fill:#b2b1b1;fill-opacity:1;fill-rule:nonzero;stroke:none" /><path
             d="m 4037.89,622.098 10,0 0,3556 -10,0 0,-3556 z"
             id="path2636"
             style="fill:#b3b1b2;fill-opacity:1;fill-rule:nonzero;stroke:none" /><path
             d="m 4027.86,622.098 10,0 0,3556 -10,0 0,-3556 z"
             id="path2638"
             style="fill:#b4b2b3;fill-opacity:1;fill-rule:nonzero;stroke:none" /><path
             d="m 4017.82,622.098 10,0 0,3556 -10,0 0,-3556 z"
             id="path2640"
             style="fill:#b5b3b4;fill-opacity:1;fill-rule:nonzero;stroke:none" /><path
             d="m 4007.78,622.098 10,0 0,3556 -10,0 0,-3556 z"
             id="path2642"
             style="fill:#b6b4b5;fill-opacity:1;fill-rule:nonzero;stroke:none" /><path
             d="m 3997.74,622.098 10,0 0,3556 -10,0 0,-3556 z"
             id="path2644"
             style="fill:#b6b5b5;fill-opacity:1;fill-rule:nonzero;stroke:none" /><path
             d="m 3987.71,622.098 10,0 0,3556 -10,0 0,-3556 z"
             id="path2646"
             style="fill:#b7b6b6;fill-opacity:1;fill-rule:nonzero;stroke:none" /><path
             d="m 3977.67,622.098 10,0 0,3556 -10,0 0,-3556 z"
             id="path2648"
             style="fill:#b8b7b7;fill-opacity:1;fill-rule:nonzero;stroke:none" /><path
             d="m 3967.63,622.098 10,0 0,3556 -10,0 0,-3556 z"
             id="path2650"
             style="fill:#b9b8b8;fill-opacity:1;fill-rule:nonzero;stroke:none" /><path
             d="m 3957.6,622.098 10,0 0,3556 -10,0 0,-3556 z"
             id="path2652"
             style="fill:#bab9b9;fill-opacity:1;fill-rule:nonzero;stroke:none" /><path
             d="m 3947.56,622.098 10,0 0,3556 -10,0 0,-3556 z"
             id="path2654"
             style="fill:#bbbaba;fill-opacity:1;fill-rule:nonzero;stroke:none" /><path
             d="m 3937.52,622.098 10,0 0,3556 -10,0 0,-3556 z"
             id="path2656"
             style="fill:#bcbbbb;fill-opacity:1;fill-rule:nonzero;stroke:none" /><path
             d="m 3927.49,622.098 10,0 0,3556 -10,0 0,-3556 z"
             id="path2658"
             style="fill:#bdbcbc;fill-opacity:1;fill-rule:nonzero;stroke:none" /><path
             d="m 3917.45,622.098 10,0 0,3556 -10,0 0,-3556 z"
             id="path2660"
             style="fill:#bebdbd;fill-opacity:1;fill-rule:nonzero;stroke:none" /><path
             d="m 3907.41,622.098 10,0 0,3556 -10,0 0,-3556 z"
             id="path2662"
             style="fill:#bfbdbe;fill-opacity:1;fill-rule:nonzero;stroke:none" /><path
             d="m 3897.38,622.098 10,0 0,3556 -10,0 0,-3556 z"
             id="path2664"
             style="fill:#c0bebf;fill-opacity:1;fill-rule:nonzero;stroke:none" /><path
             d="m 3887.34,622.098 10,0 0,3556 -10,0 0,-3556 z"
             id="path2666"
             style="fill:#c0bfc0;fill-opacity:1;fill-rule:nonzero;stroke:none" /><path
             d="m 3877.3,622.098 10,0 0,3556 -10,0 0,-3556 z"
             id="path2668"
             style="fill:#c1c0c1;fill-opacity:1;fill-rule:nonzero;stroke:none" /><path
             d="m 3867.27,622.098 10,0 0,3556 -10,0 0,-3556 z"
             id="path2670"
             style="fill:#c2c1c1;fill-opacity:1;fill-rule:nonzero;stroke:none" /><path
             d="m 3857.23,622.098 10,0 0,3556 -10,0 0,-3556 z"
             id="path2672"
             style="fill:#c3c2c2;fill-opacity:1;fill-rule:nonzero;stroke:none" /><path
             d="m 3847.2,622.098 10,0 0,3556 -10,0 0,-3556 z"
             id="path2674"
             style="fill:#c4c3c3;fill-opacity:1;fill-rule:nonzero;stroke:none" /><path
             d="m 3837.16,622.098 10,0 0,3556 -10,0 0,-3556 z"
             id="path2676"
             style="fill:#c5c4c4;fill-opacity:1;fill-rule:nonzero;stroke:none" /><path
             d="m 3827.12,622.098 10,0 0,3556 -10,0 0,-3556 z"
             id="path2678"
             style="fill:#c6c5c5;fill-opacity:1;fill-rule:nonzero;stroke:none" /><path
             d="m 3817.09,622.098 10,0 0,3556 -10,0 0,-3556 z"
             id="path2680"
             style="fill:#c7c6c6;fill-opacity:1;fill-rule:nonzero;stroke:none" /><path
             d="m 3807.05,622.098 10,0 0,3556 -10,0 0,-3556 z"
             id="path2682"
             style="fill:#c8c7c7;fill-opacity:1;fill-rule:nonzero;stroke:none" /><path
             d="m 3797.01,622.098 10,0 0,3556 -10,0 0,-3556 z"
             id="path2684"
             style="fill:#c9c8c8;fill-opacity:1;fill-rule:nonzero;stroke:none" /><path
             d="m 3786.98,622.098 10,0 0,3556 -10,0 0,-3556 z"
             id="path2686"
             style="fill:#cac9c9;fill-opacity:1;fill-rule:nonzero;stroke:none" /><path
             d="m 3776.94,622.098 10,0 0,3556 -10,0 0,-3556 z"
             id="path2688"
             style="fill:#cac9ca;fill-opacity:1;fill-rule:nonzero;stroke:none" /><path
             d="m 3766.9,622.098 10,0 0,3556 -10,0 0,-3556 z"
             id="path2690"
             style="fill:#cbcacb;fill-opacity:1;fill-rule:nonzero;stroke:none" /><path
             d="m 3756.86,622.098 10,0 0,3556 -10,0 0,-3556 z"
             id="path2692"
             style="fill:#cccbcc;fill-opacity:1;fill-rule:nonzero;stroke:none" /><path
             d="m 3746.83,622.098 10,0 0,3556 -10,0 0,-3556 z"
             id="path2694"
             style="fill:#cdcccc;fill-opacity:1;fill-rule:nonzero;stroke:none" /><path
             d="m 3736.79,622.098 10,0 0,3556 -10,0 0,-3556 z"
             id="path2696"
             style="fill:#cecdcd;fill-opacity:1;fill-rule:nonzero;stroke:none" /><path
             d="m 3726.75,622.098 10,0 0,3556 -10,0 0,-3556 z"
             id="path2698"
             style="fill:#cfcece;fill-opacity:1;fill-rule:nonzero;stroke:none" /><path
             d="m 3716.72,622.098 10,0 0,3556 -10,0 0,-3556 z"
             id="path2700"
             style="fill:#d0cfcf;fill-opacity:1;fill-rule:nonzero;stroke:none" /><path
             d="m 3706.68,622.098 10,0 0,3556 -10,0 0,-3556 z"
             id="path2702"
             style="fill:#d1d0d0;fill-opacity:1;fill-rule:nonzero;stroke:none" /><path
             d="m 3696.64,622.098 10,0 0,3556 -10,0 0,-3556 z"
             id="path2704"
             style="fill:#d2d1d1;fill-opacity:1;fill-rule:nonzero;stroke:none" /><path
             d="m 3686.61,622.098 10,0 0,3556 -10,0 0,-3556 z"
             id="path2706"
             style="fill:#d3d2d2;fill-opacity:1;fill-rule:nonzero;stroke:none" /><path
             d="m 3676.57,622.098 10,0 0,3556 -10,0 0,-3556 z"
             id="path2708"
             style="fill:#d3d3d3;fill-opacity:1;fill-rule:nonzero;stroke:none" /><path
             d="m 3666.54,622.098 10,0 0,3556 -10,0 0,-3556 z"
             id="path2710"
             style="fill:#d4d4d4;fill-opacity:1;fill-rule:nonzero;stroke:none" /><path
             d="m 3656.5,622.098 10,0 0,3556 -10,0 0,-3556 z"
             id="path2712"
             style="fill:#d5d5d5;fill-opacity:1;fill-rule:nonzero;stroke:none" /><path
             d="m 3646.46,622.098 10,0 0,3556 -10,0 0,-3556 z"
             id="path2714"
             style="fill:#d6d5d6;fill-opacity:1;fill-rule:nonzero;stroke:none" /><path
             d="m 3636.43,622.098 10,0 0,3556 -10,0 0,-3556 z"
             id="path2716"
             style="fill:#d7d6d7;fill-opacity:1;fill-rule:nonzero;stroke:none" /><path
             d="m 3626.39,622.098 10,0 0,3556 -10,0 0,-3556 z"
             id="path2718"
             style="fill:#d8d7d7;fill-opacity:1;fill-rule:nonzero;stroke:none" /><path
             d="m 3616.35,622.098 10,0 0,3556 -10,0 0,-3556 z"
             id="path2720"
             style="fill:#d9d8d8;fill-opacity:1;fill-rule:nonzero;stroke:none" /><path
             d="m 3606.32,622.098 10,0 0,3556 -10,0 0,-3556 z"
             id="path2722"
             style="fill:#dad9d9;fill-opacity:1;fill-rule:nonzero;stroke:none" /><path
             d="m 3596.28,622.098 10,0 0,3556 -10,0 0,-3556 z"
             id="path2724"
             style="fill:#dbdada;fill-opacity:1;fill-rule:nonzero;stroke:none" /><path
             d="m 3586.24,622.098 10,0 0,3556 -10,0 0,-3556 z"
             id="path2726"
             style="fill:#dcdbdb;fill-opacity:1;fill-rule:nonzero;stroke:none" /><path
             d="m 3576.21,622.098 10,0 0,3556 -10,0 0,-3556 z"
             id="path2728"
             style="fill:#dddcdc;fill-opacity:1;fill-rule:nonzero;stroke:none" /><path
             d="m 3566.17,622.098 10,0 0,3556 -10,0 0,-3556 z"
             id="path2730"
             style="fill:#dddddd;fill-opacity:1;fill-rule:nonzero;stroke:none" /><path
             d="m 3556.13,622.098 10,0 0,3556 -10,0 0,-3556 z"
             id="path2732"
             style="fill:#dedede;fill-opacity:1;fill-rule:nonzero;stroke:none" /><path
             d="m 3546.1,622.098 10,0 0,3556 -10,0 0,-3556 z"
             id="path2734"
             style="fill:#dfdfdf;fill-opacity:1;fill-rule:nonzero;stroke:none" /><path
             d="m 3536.06,622.098 10,0 0,3556 -10,0 0,-3556 z"
             id="path2736"
             style="fill:#e0e0e0;fill-opacity:1;fill-rule:nonzero;stroke:none" /><path
             d="m 3526.02,622.098 10,0 0,3556 -10,0 0,-3556 z"
             id="path2738"
             style="fill:#e1e1e1;fill-opacity:1;fill-rule:nonzero;stroke:none" /><path
             d="m 3515.98,622.098 10,0 0,3556 -10,0 0,-3556 z"
             id="path2740"
             style="fill:#e2e1e2;fill-opacity:1;fill-rule:nonzero;stroke:none" /><path
             d="m 3505.95,622.098 10,0 0,3556 -10,0 0,-3556 z"
             id="path2742"
             style="fill:#e3e2e3;fill-opacity:1;fill-rule:nonzero;stroke:none" /><path
             d="m 3495.91,622.098 10,0 0,3556 -10,0 0,-3556 z"
             id="path2744"
             style="fill:#e4e3e3;fill-opacity:1;fill-rule:nonzero;stroke:none" /><path
             d="m 3485.88,622.098 10,0 0,3556 -10,0 0,-3556 z"
             id="path2746"
             style="fill:#e5e4e4;fill-opacity:1;fill-rule:nonzero;stroke:none" /><path
             d="m 3475.84,622.098 10,0 0,3556 -10,0 0,-3556 z"
             id="path2748"
             style="fill:#e6e5e5;fill-opacity:1;fill-rule:nonzero;stroke:none" /><path
             d="m 3465.8,622.098 10,0 0,3556 -10,0 0,-3556 z"
             id="path2750"
             style="fill:#e7e6e6;fill-opacity:1;fill-rule:nonzero;stroke:none" /><path
             d="m 3455.77,622.098 10,0 0,3556 -10,0 0,-3556 z"
             id="path2752"
             style="fill:#e7e7e7;fill-opacity:1;fill-rule:nonzero;stroke:none" /><path
             d="m 3445.73,622.098 10,0 0,3556 -10,0 0,-3556 z"
             id="path2754"
             style="fill:#e8e8e8;fill-opacity:1;fill-rule:nonzero;stroke:none" /><path
             d="m 3435.69,622.098 10,0 0,3556 -10,0 0,-3556 z"
             id="path2756"
             style="fill:#e9e9e9;fill-opacity:1;fill-rule:nonzero;stroke:none" /><path
             d="m 3425.66,622.098 10,0 0,3556 -10,0 0,-3556 z"
             id="path2758"
             style="fill:#eaeaea;fill-opacity:1;fill-rule:nonzero;stroke:none" /><path
             d="m 3415.62,622.098 10,0 0,3556 -10,0 0,-3556 z"
             id="path2760"
             style="fill:#ebebeb;fill-opacity:1;fill-rule:nonzero;stroke:none" /><path
             d="m 3405.58,622.098 10,0 0,3556 -10,0 0,-3556 z"
             id="path2762"
             style="fill:#ececec;fill-opacity:1;fill-rule:nonzero;stroke:none" /><path
             d="m 3395.55,622.098 10,0 0,3556 -10,0 0,-3556 z"
             id="path2764"
             style="fill:#ededed;fill-opacity:1;fill-rule:nonzero;stroke:none" /><path
             d="m 3385.51,622.098 10,0 0,3556 -10,0 0,-3556 z"
             id="path2766"
             style="fill:#eeedee;fill-opacity:1;fill-rule:nonzero;stroke:none" /><path
             d="m 3375.47,622.098 10,0 0,3556 -10,0 0,-3556 z"
             id="path2768"
             style="fill:#efeeee;fill-opacity:1;fill-rule:nonzero;stroke:none" /><path
             d="m 3365.44,622.098 10,0 0,3556 -10,0 0,-3556 z"
             id="path2770"
             style="fill:#f0efef;fill-opacity:1;fill-rule:nonzero;stroke:none" /><path
             d="m 3355.4,622.098 10,0 0,3556 -10,0 0,-3556 z"
             id="path2772"
             style="fill:#f1f0f0;fill-opacity:1;fill-rule:nonzero;stroke:none" /><path
             d="m 3345.36,622.098 10,0 0,3556 -10,0 0,-3556 z"
             id="path2774"
             style="fill:#f1f1f1;fill-opacity:1;fill-rule:nonzero;stroke:none" /><path
             d="m 3335.33,622.098 10,0 0,3556 -10,0 0,-3556 z"
             id="path2776"
             style="fill:#f2f2f2;fill-opacity:1;fill-rule:nonzero;stroke:none" /><path
             d="m 3325.29,622.098 10,0 0,3556 -10,0 0,-3556 z"
             id="path2778"
             style="fill:#f3f3f3;fill-opacity:1;fill-rule:nonzero;stroke:none" /><path
             d="m 3315.25,622.098 10,0 0,3556 -10,0 0,-3556 z"
             id="path2780"
             style="fill:#f4f4f4;fill-opacity:1;fill-rule:nonzero;stroke:none" /><path
             d="m 3305.22,622.098 10,0 0,3556 -10,0 0,-3556 z"
             id="path2782"
             style="fill:#f5f5f5;fill-opacity:1;fill-rule:nonzero;stroke:none" /><path
             d="m 3295.18,622.098 10,0 0,3556 -10,0 0,-3556 z"
             id="path2784"
             style="fill:#f6f6f6;fill-opacity:1;fill-rule:nonzero;stroke:none" /><path
             d="m 3285.14,622.098 10,0 0,3556 -10,0 0,-3556 z"
             id="path2786"
             style="fill:#f7f7f7;fill-opacity:1;fill-rule:nonzero;stroke:none" /><path
             d="m 3275.11,622.098 10,0 0,3556 -10,0 0,-3556 z"
             id="path2788"
             style="fill:#f8f8f8;fill-opacity:1;fill-rule:nonzero;stroke:none" /><path
             d="m 3265.07,622.098 10,0 0,3556 -10,0 0,-3556 z"
             id="path2790"
             style="fill:#f9f9f9;fill-opacity:1;fill-rule:nonzero;stroke:none" /><path
             d="m 3255.04,622.098 10,0 0,3556 -10,0 0,-3556 z"
             id="path2792"
             style="fill:#faf9f9;fill-opacity:1;fill-rule:nonzero;stroke:none" /><path
             d="m 3245,622.098 10,0 0,3556 -10,0 0,-3556 z"
             id="path2794"
             style="fill:#fafafa;fill-opacity:1;fill-rule:nonzero;stroke:none" /><path
             d="m 3234.96,622.098 10,0 0,3556 -10,0 0,-3556 z"
             id="path2796"
             style="fill:#fbfbfb;fill-opacity:1;fill-rule:nonzero;stroke:none" /><path
             d="m 3224.93,622.098 10,0 0,3556 -10,0 0,-3556 z"
             id="path2798"
             style="fill:#fcfcfc;fill-opacity:1;fill-rule:nonzero;stroke:none" /><path
             d="m 3214.89,622.098 10,0 0,3556 -10,0 0,-3556 z"
             id="path2800"
             style="fill:#fdfdfd;fill-opacity:1;fill-rule:nonzero;stroke:none" /><path
             d="m 3204.85,622.098 10,0 0,3556 -10,0 0,-3556 z"
             id="path2802"
             style="fill:#fefefe;fill-opacity:1;fill-rule:nonzero;stroke:none" /><path
             d="m 3194.81,622.098 10,0 0,3556 -10,0 0,-3556 z"
             id="path2804"
             style="fill:#ffffff;fill-opacity:1;fill-rule:nonzero;stroke:none" /><path
             d="m 2408.1,622.098 792,0 0,3556 -792,0 0,-3556 z"
             id="path2806"
             style="fill:#ffffff;fill-opacity:1;fill-rule:nonzero;stroke:none" /><path
             d="m 1616.5,622.098 791.996,0 0,3556 -791.996,0 0,-3556 z"
             id="path2808"
             style="fill:#ffffff;fill-opacity:1;fill-rule:nonzero;stroke:none" /><path
             d="m 1611.46,622.098 10,0 0,3556 -10,0 0,-3556 z"
             id="path2810"
             style="fill:#ffffff;fill-opacity:1;fill-rule:nonzero;stroke:none" /><path
             d="m 1601.43,622.098 10,0 0,3556 -10,0 0,-3556 z"
             id="path2812"
             style="fill:#fefefe;fill-opacity:1;fill-rule:nonzero;stroke:none" /><path
             d="m 1591.39,622.098 10,0 0,3556 -10,0 0,-3556 z"
             id="path2814"
             style="fill:#fdfdfd;fill-opacity:1;fill-rule:nonzero;stroke:none" /><path
             d="m 1581.35,622.098 10,0 0,3556 -10,0 0,-3556 z"
             id="path2816"
             style="fill:#fcfcfc;fill-opacity:1;fill-rule:nonzero;stroke:none" /><path
             d="m 1571.31,622.098 10,0 0,3556 -10,0 0,-3556 z"
             id="path2818"
             style="fill:#fbfafb;fill-opacity:1;fill-rule:nonzero;stroke:none" /><path
             d="m 1561.27,622.098 10,0 0,3556 -10,0 0,-3556 z"
             id="path2820"
             style="fill:#f9f9f9;fill-opacity:1;fill-rule:nonzero;stroke:none" /><path
             d="m 1551.23,622.098 10,0 0,3556 -10,0 0,-3556 z"
             id="path2822"
             style="fill:#f8f8f8;fill-opacity:1;fill-rule:nonzero;stroke:none" /><path
             d="m 1541.19,622.098 10,0 0,3556 -10,0 0,-3556 z"
             id="path2824"
             style="fill:#f7f7f7;fill-opacity:1;fill-rule:nonzero;stroke:none" /><path
             d="m 1531.15,622.098 10,0 0,3556 -10,0 0,-3556 z"
             id="path2826"
             style="fill:#f6f6f6;fill-opacity:1;fill-rule:nonzero;stroke:none" /><path
             d="m 1521.11,622.098 10,0 0,3556 -10,0 0,-3556 z"
             id="path2828"
             style="fill:#f5f5f5;fill-opacity:1;fill-rule:nonzero;stroke:none" /><path
             d="m 1511.07,622.098 10,0 0,3556 -10,0 0,-3556 z"
             id="path2830"
             style="fill:#f4f4f4;fill-opacity:1;fill-rule:nonzero;stroke:none" /><path
             d="m 1501.04,622.098 10,0 0,3556 -10,0 0,-3556 z"
             id="path2832"
             style="fill:#f3f3f3;fill-opacity:1;fill-rule:nonzero;stroke:none" /><path
             d="m 1491,622.098 10,0 0,3556 -10,0 0,-3556 z"
             id="path2834"
             style="fill:#f2f1f1;fill-opacity:1;fill-rule:nonzero;stroke:none" /><path
             d="m 1480.96,622.098 10,0 0,3556 -10,0 0,-3556 z"
             id="path2836"
             style="fill:#f1f0f0;fill-opacity:1;fill-rule:nonzero;stroke:none" /><path
             d="m 1470.92,622.098 10,0 0,3556 -10,0 0,-3556 z"
             id="path2838"
             style="fill:#efefef;fill-opacity:1;fill-rule:nonzero;stroke:none" /><path
             d="m 1460.88,622.098 10,0 0,3556 -10,0 0,-3556 z"
             id="path2840"
             style="fill:#eeeeee;fill-opacity:1;fill-rule:nonzero;stroke:none" /><path
             d="m 1450.84,622.098 10,0 0,3556 -10,0 0,-3556 z"
             id="path2842"
             style="fill:#ededed;fill-opacity:1;fill-rule:nonzero;stroke:none" /><path
             d="m 1440.8,622.098 10,0 0,3556 -10,0 0,-3556 z"
             id="path2844"
             style="fill:#ececec;fill-opacity:1;fill-rule:nonzero;stroke:none" /><path
             d="m 1430.76,622.098 10,0 0,3556 -10,0 0,-3556 z"
             id="path2846"
             style="fill:#ebebeb;fill-opacity:1;fill-rule:nonzero;stroke:none" /><path
             d="m 1420.72,622.098 10,0 0,3556 -10,0 0,-3556 z"
             id="path2848"
             style="fill:#eaeaea;fill-opacity:1;fill-rule:nonzero;stroke:none" /><path
             d="m 1410.68,622.098 10,0 0,3556 -10,0 0,-3556 z"
             id="path2850"
             style="fill:#e9e8e8;fill-opacity:1;fill-rule:nonzero;stroke:none" /><path
             d="m 1400.64,622.098 10,0 0,3556 -10,0 0,-3556 z"
             id="path2852"
             style="fill:#e8e7e7;fill-opacity:1;fill-rule:nonzero;stroke:none" /><path
             d="m 1390.61,622.098 10,0 0,3556 -10,0 0,-3556 z"
             id="path2854"
             style="fill:#e7e6e6;fill-opacity:1;fill-rule:nonzero;stroke:none" /><path
             d="m 1380.57,622.098 10,0 0,3556 -10,0 0,-3556 z"
             id="path2856"
             style="fill:#e5e5e5;fill-opacity:1;fill-rule:nonzero;stroke:none" /><path
             d="m 1370.53,622.098 10,0 0,3556 -10,0 0,-3556 z"
             id="path2858"
             style="fill:#e4e4e4;fill-opacity:1;fill-rule:nonzero;stroke:none" /><path
             d="m 1360.49,622.098 10,0 0,3556 -10,0 0,-3556 z"
             id="path2860"
             style="fill:#e3e3e3;fill-opacity:1;fill-rule:nonzero;stroke:none" /><path
             d="m 1350.45,622.098 10,0 0,3556 -10,0 0,-3556 z"
             id="path2862"
             style="fill:#e2e2e2;fill-opacity:1;fill-rule:nonzero;stroke:none" /><path
             d="m 1340.41,622.098 10,0 0,3556 -10,0 0,-3556 z"
             id="path2864"
             style="fill:#e1e0e1;fill-opacity:1;fill-rule:nonzero;stroke:none" /><path
             d="m 1330.37,622.098 10,0 0,3556 -10,0 0,-3556 z"
             id="path2866"
             style="fill:#e0dfdf;fill-opacity:1;fill-rule:nonzero;stroke:none" /><path
             d="m 1320.33,622.098 10,0 0,3556 -10,0 0,-3556 z"
             id="path2868"
             style="fill:#dfdede;fill-opacity:1;fill-rule:nonzero;stroke:none" /><path
             d="m 1310.29,622.098 10,0 0,3556 -10,0 0,-3556 z"
             id="path2870"
             style="fill:#dedddd;fill-opacity:1;fill-rule:nonzero;stroke:none" /><path
             d="m 1300.25,622.098 10,0 0,3556 -10,0 0,-3556 z"
             id="path2872"
             style="fill:#dddcdc;fill-opacity:1;fill-rule:nonzero;stroke:none" /><path
             d="m 1290.21,622.098 10,0 0,3556 -10,0 0,-3556 z"
             id="path2874"
             style="fill:#dbdbdb;fill-opacity:1;fill-rule:nonzero;stroke:none" /><path
             d="m 1280.18,622.098 10,0 0,3556 -10,0 0,-3556 z"
             id="path2876"
             style="fill:#dadada;fill-opacity:1;fill-rule:nonzero;stroke:none" /><path
             d="m 1270.14,622.098 10,0 0,3556 -10,0 0,-3556 z"
             id="path2878"
             style="fill:#d9d9d9;fill-opacity:1;fill-rule:nonzero;stroke:none" /><path
             d="m 1260.1,622.098 10,0 0,3556 -10,0 0,-3556 z"
             id="path2880"
             style="fill:#d8d7d8;fill-opacity:1;fill-rule:nonzero;stroke:none" /><path
             d="m 1250.06,622.098 10,0 0,3556 -10,0 0,-3556 z"
             id="path2882"
             style="fill:#d7d6d6;fill-opacity:1;fill-rule:nonzero;stroke:none" /><path
             d="m 1240.02,622.098 10,0 0,3556 -10,0 0,-3556 z"
             id="path2884"
             style="fill:#d6d5d5;fill-opacity:1;fill-rule:nonzero;stroke:none" /><path
             d="m 1229.98,622.098 10,0 0,3556 -10,0 0,-3556 z"
             id="path2886"
             style="fill:#d5d4d4;fill-opacity:1;fill-rule:nonzero;stroke:none" /><path
             d="m 1219.94,622.098 10,0 0,3556 -10,0 0,-3556 z"
             id="path2888"
             style="fill:#d4d3d3;fill-opacity:1;fill-rule:nonzero;stroke:none" /><path
             d="m 1209.9,622.098 10,0 0,3556 -10,0 0,-3556 z"
             id="path2890"
             style="fill:#d3d2d2;fill-opacity:1;fill-rule:nonzero;stroke:none" /><path
             d="m 1199.86,622.098 10,0 0,3556 -10,0 0,-3556 z"
             id="path2892"
             style="fill:#d1d1d1;fill-opacity:1;fill-rule:nonzero;stroke:none" /><path
             d="m 1189.82,622.098 10,0 0,3556 -10,0 0,-3556 z"
             id="path2894"
             style="fill:#d0cfd0;fill-opacity:1;fill-rule:nonzero;stroke:none" /><path
             d="m 1179.79,622.098 10,0 0,3556 -10,0 0,-3556 z"
             id="path2896"
             style="fill:#cfcecf;fill-opacity:1;fill-rule:nonzero;stroke:none" /><path
             d="m 1169.75,622.098 10,0 0,3556 -10,0 0,-3556 z"
             id="path2898"
             style="fill:#cecdcd;fill-opacity:1;fill-rule:nonzero;stroke:none" /><path
             d="m 1159.71,622.098 10,0 0,3556 -10,0 0,-3556 z"
             id="path2900"
             style="fill:#cdcccc;fill-opacity:1;fill-rule:nonzero;stroke:none" /><path
             d="m 1149.67,622.098 10,0 0,3556 -10,0 0,-3556 z"
             id="path2902"
             style="fill:#cccbcb;fill-opacity:1;fill-rule:nonzero;stroke:none" /><path
             d="m 1139.63,622.098 10,0 0,3556 -10,0 0,-3556 z"
             id="path2904"
             style="fill:#cbcaca;fill-opacity:1;fill-rule:nonzero;stroke:none" /><path
             d="m 1129.59,622.098 10,0 0,3556 -10,0 0,-3556 z"
             id="path2906"
             style="fill:#cac9c9;fill-opacity:1;fill-rule:nonzero;stroke:none" /><path
             d="m 1119.55,622.098 10,0 0,3556 -10,0 0,-3556 z"
             id="path2908"
             style="fill:#c9c8c8;fill-opacity:1;fill-rule:nonzero;stroke:none" /><path
             d="m 1109.51,622.098 10,0 0,3556 -10,0 0,-3556 z"
             id="path2910"
             style="fill:#c7c6c7;fill-opacity:1;fill-rule:nonzero;stroke:none" /><path
             d="m 1099.47,622.098 10,0 0,3556 -10,0 0,-3556 z"
             id="path2912"
             style="fill:#c6c5c6;fill-opacity:1;fill-rule:nonzero;stroke:none" /><path
             d="m 1089.43,622.098 10,0 0,3556 -10,0 0,-3556 z"
             id="path2914"
             style="fill:#c5c4c4;fill-opacity:1;fill-rule:nonzero;stroke:none" /><path
             d="m 1079.39,622.098 10,0 0,3556 -10,0 0,-3556 z"
             id="path2916"
             style="fill:#c4c3c3;fill-opacity:1;fill-rule:nonzero;stroke:none" /><path
             d="m 1069.36,622.098 10,0 0,3556 -10,0 0,-3556 z"
             id="path2918"
             style="fill:#c3c2c2;fill-opacity:1;fill-rule:nonzero;stroke:none" /><path
             d="m 1059.32,622.098 10,0 0,3556 -10,0 0,-3556 z"
             id="path2920"
             style="fill:#c2c1c1;fill-opacity:1;fill-rule:nonzero;stroke:none" /><path
             d="m 1049.28,622.098 10,0 0,3556 -10,0 0,-3556 z"
             id="path2922"
             style="fill:#c1c0c0;fill-opacity:1;fill-rule:nonzero;stroke:none" /><path
             d="m 1039.24,622.098 10,0 0,3556 -10,0 0,-3556 z"
             id="path2924"
             style="fill:#c0bfbf;fill-opacity:1;fill-rule:nonzero;stroke:none" /><path
             d="m 1029.2,622.098 10,0 0,3556 -10,0 0,-3556 z"
             id="path2926"
             style="fill:#bfbdbe;fill-opacity:1;fill-rule:nonzero;stroke:none" /><path
             d="m 1019.16,622.098 10,0 0,3556 -10,0 0,-3556 z"
             id="path2928"
             style="fill:#bdbcbd;fill-opacity:1;fill-rule:nonzero;stroke:none" /><path
             d="m 1009.12,622.098 10,0 0,3556 -10,0 0,-3556 z"
             id="path2930"
             style="fill:#bcbbbb;fill-opacity:1;fill-rule:nonzero;stroke:none" /><path
             d="m 999.082,622.098 10,0 0,3556 -10,0 0,-3556 z"
             id="path2932"
             style="fill:#bbbaba;fill-opacity:1;fill-rule:nonzero;stroke:none" /><path
             d="m 989.043,622.098 10,0 0,3556 -10,0 0,-3556 z"
             id="path2934"
             style="fill:#bab9b9;fill-opacity:1;fill-rule:nonzero;stroke:none" /><path
             d="m 979.004,622.098 10,0 0,3556 -10,0 0,-3556 z"
             id="path2936"
             style="fill:#b9b8b8;fill-opacity:1;fill-rule:nonzero;stroke:none" /><path
             d="m 968.965,622.098 10,0 0,3556 -10,0 0,-3556 z"
             id="path2938"
             style="fill:#b8b7b7;fill-opacity:1;fill-rule:nonzero;stroke:none" /><path
             d="m 958.926,622.098 10,0 0,3556 -10,0 0,-3556 z"
             id="path2940"
             style="fill:#b7b5b6;fill-opacity:1;fill-rule:nonzero;stroke:none" /><path
             d="m 948.887,622.098 10,0 0,3556 -10,0 0,-3556 z"
             id="path2942"
             style="fill:#b6b4b5;fill-opacity:1;fill-rule:nonzero;stroke:none" /><path
             d="m 938.848,622.098 10,0 0,3556 -10,0 0,-3556 z"
             id="path2944"
             style="fill:#b5b3b4;fill-opacity:1;fill-rule:nonzero;stroke:none" /><path
             d="m 928.809,622.098 10,0 0,3556 -10,0 0,-3556 z"
             id="path2946"
             style="fill:#b3b2b2;fill-opacity:1;fill-rule:nonzero;stroke:none" /><path
             d="m 918.77,622.098 10,0 0,3556 -10,0 0,-3556 z"
             id="path2948"
             style="fill:#b2b1b1;fill-opacity:1;fill-rule:nonzero;stroke:none" /><path
             d="m 908.73,622.098 10,0 0,3556 -10,0 0,-3556 z"
             id="path2950"
             style="fill:#b1b0b0;fill-opacity:1;fill-rule:nonzero;stroke:none" /><path
             d="m 898.691,622.098 10,0 0,3556 -10,0 0,-3556 z"
             id="path2952"
             style="fill:#b0afaf;fill-opacity:1;fill-rule:nonzero;stroke:none" /><path
             d="m 888.652,622.098 10,0 0,3556 -10,0 0,-3556 z"
             id="path2954"
             style="fill:#afaeae;fill-opacity:1;fill-rule:nonzero;stroke:none" /><path
             d="m 878.613,622.098 10,0 0,3556 -10,0 0,-3556 z"
             id="path2956"
             style="fill:#aeacad;fill-opacity:1;fill-rule:nonzero;stroke:none" /><path
             d="m 868.574,622.098 10,0 0,3556 -10,0 0,-3556 z"
             id="path2958"
             style="fill:#adabac;fill-opacity:1;fill-rule:nonzero;stroke:none" /><path
             d="m 858.535,622.098 10,0 0,3556 -10,0 0,-3556 z"
             id="path2960"
             style="fill:#acaaab;fill-opacity:1;fill-rule:nonzero;stroke:none" /><path
             d="m 848.496,622.098 10,0 0,3556 -10,0 0,-3556 z"
             id="path2962"
             style="fill:#aba9a9;fill-opacity:1;fill-rule:nonzero;stroke:none" /><path
             d="m 838.457,622.098 10,0 0,3556 -10,0 0,-3556 z"
             id="path2964"
             style="fill:#a9a8a8;fill-opacity:1;fill-rule:nonzero;stroke:none" /><path
             d="m 828.418,622.098 10,0 0,3556 -10,0 0,-3556 z"
             id="path2966"
             style="fill:#a8a7a7;fill-opacity:1;fill-rule:nonzero;stroke:none" /><path
             d="m 818.379,622.098 10,0 0,3556 -10,0 0,-3556 z"
             id="path2968"
             style="fill:#a7a6a6;fill-opacity:1;fill-rule:nonzero;stroke:none" /><path
             d="m 808.34,622.098 10,0 0,3556 -10,0 0,-3556 z"
             id="path2970"
             style="fill:#a6a4a5;fill-opacity:1;fill-rule:nonzero;stroke:none" /><path
             d="m 798.301,622.098 10,0 0,3556 -10,0 0,-3556 z"
             id="path2972"
             style="fill:#a5a3a4;fill-opacity:1;fill-rule:nonzero;stroke:none" /><path
             d="m 788.262,622.098 10,0 0,3556 -10,0 0,-3556 z"
             id="path2974"
             style="fill:#a4a2a3;fill-opacity:1;fill-rule:nonzero;stroke:none" /><path
             d="m 778.223,622.098 10,0 0,3556 -10,0 0,-3556 z"
             id="path2976"
             style="fill:#a3a1a2;fill-opacity:1;fill-rule:nonzero;stroke:none" /><path
             d="m 768.184,622.098 10,0 0,3556 -10,0 0,-3556 z"
             id="path2978"
             style="fill:#a2a0a0;fill-opacity:1;fill-rule:nonzero;stroke:none" /><path
             d="m 758.145,622.098 10,0 0,3556 -10,0 0,-3556 z"
             id="path2980"
             style="fill:#a19f9f;fill-opacity:1;fill-rule:nonzero;stroke:none" /><path
             d="m 748.105,622.098 10,0 0,3556 -10,0 0,-3556 z"
             id="path2982"
             style="fill:#9f9e9e;fill-opacity:1;fill-rule:nonzero;stroke:none" /><path
             d="m 738.066,622.098 10,0 0,3556 -10,0 0,-3556 z"
             id="path2984"
             style="fill:#9e9d9d;fill-opacity:1;fill-rule:nonzero;stroke:none" /><path
             d="m 728.027,622.098 10,0 0,3556 -10,0 0,-3556 z"
             id="path2986"
             style="fill:#9d9b9c;fill-opacity:1;fill-rule:nonzero;stroke:none" /><path
             d="m 717.988,622.098 10,0 0,3556 -10,0 0,-3556 z"
             id="path2988"
             style="fill:#9c9a9b;fill-opacity:1;fill-rule:nonzero;stroke:none" /><path
             d="m 707.949,622.098 10,0 0,3556 -10,0 0,-3556 z"
             id="path2990"
             style="fill:#9b999a;fill-opacity:1;fill-rule:nonzero;stroke:none" /><path
             d="m 697.91,622.098 10,0 0,3556 -10,0 0,-3556 z"
             id="path2992"
             style="fill:#9a9898;fill-opacity:1;fill-rule:nonzero;stroke:none" /><path
             d="m 687.871,622.098 10,0 0,3556 -10,0 0,-3556 z"
             id="path2994"
             style="fill:#999797;fill-opacity:1;fill-rule:nonzero;stroke:none" /><path
             d="m 677.832,622.098 10,0 0,3556 -10,0 0,-3556 z"
             id="path2996"
             style="fill:#989696;fill-opacity:1;fill-rule:nonzero;stroke:none" /><path
             d="m 667.793,622.098 10,0 0,3556 -10,0 0,-3556 z"
             id="path2998"
             style="fill:#979595;fill-opacity:1;fill-rule:nonzero;stroke:none" /><path
             d="m 657.754,622.098 10,0 0,3556 -10,0 0,-3556 z"
             id="path3000"
             style="fill:#959494;fill-opacity:1;fill-rule:nonzero;stroke:none" /><path
             d="m 647.715,622.098 10,0 0,3556 -10,0 0,-3556 z"
             id="path3002"
             style="fill:#949293;fill-opacity:1;fill-rule:nonzero;stroke:none" /><path
             d="m 637.676,622.098 10,0 0,3556 -10,0 0,-3556 z"
             id="path3004"
             style="fill:#939192;fill-opacity:1;fill-rule:nonzero;stroke:none" /><path
             d="m 627.637,622.098 10,0 0,3556 -10,0 0,-3556 z"
             id="path3006"
             style="fill:#929091;fill-opacity:1;fill-rule:nonzero;stroke:none" /><path
             d="m 617.598,622.098 10,0 0,3556 -10,0 0,-3556 z"
             id="path3008"
             style="fill:#918f90;fill-opacity:1;fill-rule:nonzero;stroke:none" /><path
             d="m 617.301,622.098 5,0 0,3556 -5,0 0,-3556 z"
             id="path3010"
             style="fill:#918f90;fill-opacity:1;fill-rule:nonzero;stroke:none" /></g></g><path
         d="m 3655.9,3720.16 398.883,0 0,134.473 -398.883,0 0,-134.473 z"
         id="path3012"
         style="fill:#231f20;fill-opacity:1;fill-rule:nonzero;stroke:none" /><path
         d="m 3787.79,3587.95 134.473,0 0,398.883 -134.473,0 0,-398.883 z"
         id="path3014"
         style="fill:#231f20;fill-opacity:1;fill-rule:nonzero;stroke:none" /><path
         d="m 765.902,3720.16 398.883,0 0,134.473 -398.883,0 0,-134.473 z"
         id="path3016"
         style="fill:#231f20;fill-opacity:1;fill-rule:nonzero;stroke:none" /><path
         d="m 2292.05,3597.95 c 517.26,0 1007.06,-117.59 1444.11,-327.5 l -311.18,-649.46 c -342.87,164.7 -727.12,256.96 -1132.93,256.96 -336.23,0 -657.67,-63.34 -953.02,-178.74 l -288.12,660.52 c 383.7,153.68 802.54,238.22 1241.14,238.22"
         id="path3018"
         style="fill:#231f20;fill-opacity:1;fill-rule:nonzero;stroke:none" /><path
         d="m 2829.4,3554.95 c 0.65,0.84 392.13,-45.06 906.76,-284.5 l -311.18,-649.46 c -235.47,113.11 -758.55,230.41 -758.55,230.41 l 162.97,703.55"
         id="path3020"
         style="fill:#ff0000;fill-opacity:1;fill-rule:nonzero;stroke:none" /><g
         transform="scale(10,10)"
         id="g3022"><text
           transform="matrix(1,0,0,-1,107.273,131.983)"
           id="text3024"><tspan
             x="0 96.216614"
             y="0"
             id="tspan3026"
             style="font-size:157.47399902px;font-style:oblique;font-variant:normal;font-weight:bold;writing-mode:lr-tb;fill:#231f20;fill-opacity:1;fill-rule:nonzero;stroke:none;font-family:Helvetica;-inkscape-font-specification:Helvetica-BoldOblique">dB</tspan></text>
</g><path
         d="M 2334.64,714.164 1409.05,3807.61"
         id="path3028"
         style="fill:none;stroke:#ff0000;stroke-width:120;stroke-linecap:butt;stroke-linejoin:miter;stroke-miterlimit:3.8636899;stroke-opacity:1;stroke-dasharray:none" /><path
         d="M 2248.42,688.367 1322.83,3781.81 1495.28,3833.4 2420.86,739.965 2248.42,688.367"
         id="path3030"
         style="fill:#ff0000;fill-opacity:1;fill-rule:nonzero;stroke:none" /><path
         d="m 1879.75,602.051 c 0,244.933 198.83,444.099 444.1,444.099 245.27,0 444.1,-199.166 444.1,-444.099 l -888.2,0"
         id="path3032"
         style="fill:#231f20;fill-opacity:1;fill-rule:nonzero;stroke:none" /><path
         d="m 1879.75,602.051 c 0,244.933 198.83,444.099 444.1,444.099 245.27,0 444.1,-199.166 444.1,-444.099 l -888.2,0 z"
         id="path3034"
         style="fill:none;stroke:#231f20;stroke-width:10;stroke-linecap:butt;stroke-linejoin:miter;stroke-miterlimit:3.86370993;stroke-opacity:1;stroke-dasharray:none" /></g></g></svg>